<?xml version="1.0" encoding="utf-8" standalone="no"?>
<!DOCTYPE svg PUBLIC "-//W3C//DTD SVG 1.1//EN"
  "http://www.w3.org/Graphics/SVG/1.1/DTD/svg11.dtd">
<svg xmlns:xlink="http://www.w3.org/1999/xlink" width="498.663094pt" height="430.671562pt" viewBox="0 0 498.663094 430.671562" xmlns="http://www.w3.org/2000/svg" version="1.1">
 <metadata>
  <rdf:RDF xmlns:dc="http://purl.org/dc/elements/1.1/" xmlns:cc="http://creativecommons.org/ns#" xmlns:rdf="http://www.w3.org/1999/02/22-rdf-syntax-ns#">
   <cc:Work>
    <dc:type rdf:resource="http://purl.org/dc/dcmitype/StillImage"/>
    <dc:date>2025-10-21T22:02:11.453576</dc:date>
    <dc:format>image/svg+xml</dc:format>
    <dc:creator>
     <cc:Agent>
      <dc:title>Matplotlib v3.9.2, https://matplotlib.org/</dc:title>
     </cc:Agent>
    </dc:creator>
   </cc:Work>
  </rdf:RDF>
 </metadata>
 <defs>
  <style type="text/css">*{stroke-linejoin: round; stroke-linecap: butt}</style>
 </defs>
 <g id="figure_1">
  <g id="patch_1">
   <path d="M 0 430.671562 
L 498.663094 430.671562 
L 498.663094 0 
L 0 0 
z
" style="fill: #ffffff"/>
  </g>
  <g id="patch_2">
   <path d="M 50.671094 423.471562 
L 438.751094 423.471562 
L 438.751094 35.391562 
L 50.671094 35.391562 
z
" style="fill: #ffffff"/>
  </g>
  <g id="pane3d_1">
   <g id="patch_3">
    <path d="M 78.940167 328.521648 
L 208.113335 242.092348 
L 206.732847 79.634626 
L 72.741569 153.178331 
" style="fill: #f2f2f2; opacity: 0.5; stroke: #f2f2f2; stroke-linejoin: miter"/>
   </g>
  </g>
  <g id="pane3d_2">
   <g id="patch_4">
    <path d="M 208.113335 242.092348 
L 414.359088 290.063156 
L 420.07965 120.39643 
L 206.732847 79.634626 
" style="fill: #e6e6e6; opacity: 0.5; stroke: #e6e6e6; stroke-linejoin: miter"/>
   </g>
  </g>
  <g id="pane3d_3">
   <g id="patch_5">
    <path d="M 78.940167 328.521648 
L 298.442474 386.34628 
L 414.359088 290.063156 
L 208.113335 242.092348 
" style="fill: #ececec; opacity: 0.5; stroke: #ececec; stroke-linejoin: miter"/>
   </g>
  </g>
  <g id="grid3d_1">
   <g id="Line3DCollection_1">
    <path d="M 108.809414 336.390259 
L 236.301039 248.648541 
L 235.847183 85.197179 
" style="fill: none; stroke: #b0b0b0; stroke-width: 0.8"/>
    <path d="M 159.655591 349.784931 
L 284.19579 259.788406 
L 285.348225 94.654793 
" style="fill: none; stroke: #b0b0b0; stroke-width: 0.8"/>
    <path d="M 211.878717 363.54234 
L 333.271262 271.202896 
L 336.111182 104.353507 
" style="fill: none; stroke: #b0b0b0; stroke-width: 0.8"/>
    <path d="M 265.535494 377.677423 
L 383.571661 282.902292 
L 388.184933 114.30266 
" style="fill: none; stroke: #b0b0b0; stroke-width: 0.8"/>
   </g>
  </g>
  <g id="grid3d_2">
   <g id="Line3DCollection_2">
    <path d="M 93.478446 141.796495 
L 98.878308 315.18111 
L 316.410795 371.421362 
" style="fill: none; stroke: #b0b0b0; stroke-width: 0.8"/>
    <path d="M 189.082905 89.322138 
L 191.05155 253.508327 
L 399.11511 302.725171 
" style="fill: none; stroke: #b0b0b0; stroke-width: 0.8"/>
   </g>
  </g>
  <g id="grid3d_3">
   <g id="Line3DCollection_3">
    <path d="M 414.359088 290.063156 
L 208.113335 242.092348 
L 78.940167 328.521648 
" style="fill: none; stroke: #b0b0b0; stroke-width: 0.8"/>
    <path d="M 415.418867 258.631065 
L 207.857225 211.952996 
L 77.793137 296.074968 
" style="fill: none; stroke: #b0b0b0; stroke-width: 0.8"/>
    <path d="M 416.492398 226.79111 
L 207.597961 181.442413 
L 76.630617 263.190098 
" style="fill: none; stroke: #b0b0b0; stroke-width: 0.8"/>
    <path d="M 417.579949 194.5353 
L 207.335483 150.553699 
L 75.452291 229.858101 
" style="fill: none; stroke: #b0b0b0; stroke-width: 0.8"/>
    <path d="M 418.681799 161.855434 
L 207.069733 119.279781 
L 74.257834 196.069795 
" style="fill: none; stroke: #b0b0b0; stroke-width: 0.8"/>
    <path d="M 419.798229 128.743096 
L 206.800647 87.613407 
L 73.046912 161.815746 
" style="fill: none; stroke: #b0b0b0; stroke-width: 0.8"/>
   </g>
  </g>
  <g id="axis3d_1">
   <g id="line2d_1">
    <path d="M 78.940167 328.521648 
L 298.442474 386.34628 
" style="fill: none; stroke: #000000; stroke-width: 1.5; stroke-linecap: square"/>
   </g>
   <g id="xtick_1">
    <g id="line2d_2">
     <path d="M 109.926305 335.621597 
L 106.570482 337.931126 
" style="fill: none; stroke: #000000; stroke-width: 1.5; stroke-linecap: square"/>
    </g>
    <g id="text_1">
     <!-- Human -->
     <g transform="translate(82.476787 359.474871) scale(0.11 -0.11)">
      <defs>
       <path id="Arial-BoldMT-48" d="M 469 0 
L 469 4581 
L 1394 4581 
L 1394 2778 
L 3206 2778 
L 3206 4581 
L 4131 4581 
L 4131 0 
L 3206 0 
L 3206 2003 
L 1394 2003 
L 1394 0 
L 469 0 
z
" transform="scale(0.015625)"/>
       <path id="Arial-BoldMT-75" d="M 2644 0 
L 2644 497 
Q 2463 231 2167 78 
Q 1872 -75 1544 -75 
Q 1209 -75 943 72 
Q 678 219 559 484 
Q 441 750 441 1219 
L 441 3319 
L 1319 3319 
L 1319 1794 
Q 1319 1094 1367 936 
Q 1416 778 1544 686 
Q 1672 594 1869 594 
Q 2094 594 2272 717 
Q 2450 841 2515 1023 
Q 2581 1206 2581 1919 
L 2581 3319 
L 3459 3319 
L 3459 0 
L 2644 0 
z
" transform="scale(0.015625)"/>
       <path id="Arial-BoldMT-6d" d="M 394 3319 
L 1203 3319 
L 1203 2866 
Q 1638 3394 2238 3394 
Q 2556 3394 2790 3262 
Q 3025 3131 3175 2866 
Q 3394 3131 3647 3262 
Q 3900 3394 4188 3394 
Q 4553 3394 4806 3245 
Q 5059 3097 5184 2809 
Q 5275 2597 5275 2122 
L 5275 0 
L 4397 0 
L 4397 1897 
Q 4397 2391 4306 2534 
Q 4184 2722 3931 2722 
Q 3747 2722 3584 2609 
Q 3422 2497 3350 2280 
Q 3278 2063 3278 1594 
L 3278 0 
L 2400 0 
L 2400 1819 
Q 2400 2303 2353 2443 
Q 2306 2584 2207 2653 
Q 2109 2722 1941 2722 
Q 1738 2722 1575 2612 
Q 1413 2503 1342 2297 
Q 1272 2091 1272 1613 
L 1272 0 
L 394 0 
L 394 3319 
z
" transform="scale(0.015625)"/>
       <path id="Arial-BoldMT-61" d="M 1116 2306 
L 319 2450 
Q 453 2931 781 3162 
Q 1109 3394 1756 3394 
Q 2344 3394 2631 3255 
Q 2919 3116 3036 2902 
Q 3153 2688 3153 2116 
L 3144 1091 
Q 3144 653 3186 445 
Q 3228 238 3344 0 
L 2475 0 
Q 2441 88 2391 259 
Q 2369 338 2359 363 
Q 2134 144 1878 34 
Q 1622 -75 1331 -75 
Q 819 -75 523 203 
Q 228 481 228 906 
Q 228 1188 362 1408 
Q 497 1628 739 1745 
Q 981 1863 1438 1950 
Q 2053 2066 2291 2166 
L 2291 2253 
Q 2291 2506 2166 2614 
Q 2041 2722 1694 2722 
Q 1459 2722 1328 2630 
Q 1197 2538 1116 2306 
z
M 2291 1594 
Q 2122 1538 1756 1459 
Q 1391 1381 1278 1306 
Q 1106 1184 1106 997 
Q 1106 813 1243 678 
Q 1381 544 1594 544 
Q 1831 544 2047 700 
Q 2206 819 2256 991 
Q 2291 1103 2291 1419 
L 2291 1594 
z
" transform="scale(0.015625)"/>
       <path id="Arial-BoldMT-6e" d="M 3478 0 
L 2600 0 
L 2600 1694 
Q 2600 2231 2544 2389 
Q 2488 2547 2361 2634 
Q 2234 2722 2056 2722 
Q 1828 2722 1647 2597 
Q 1466 2472 1398 2265 
Q 1331 2059 1331 1503 
L 1331 0 
L 453 0 
L 453 3319 
L 1269 3319 
L 1269 2831 
Q 1703 3394 2363 3394 
Q 2653 3394 2893 3289 
Q 3134 3184 3257 3021 
Q 3381 2859 3429 2653 
Q 3478 2447 3478 2063 
L 3478 0 
z
" transform="scale(0.015625)"/>
      </defs>
      <use xlink:href="#Arial-BoldMT-48"/>
      <use xlink:href="#Arial-BoldMT-75" x="72.216797"/>
      <use xlink:href="#Arial-BoldMT-6d" x="133.300781"/>
      <use xlink:href="#Arial-BoldMT-61" x="222.216797"/>
      <use xlink:href="#Arial-BoldMT-6e" x="277.832031"/>
     </g>
    </g>
   </g>
   <g id="xtick_2">
    <g id="line2d_3">
     <path d="M 160.747891 348.995602 
L 157.465888 351.367277 
" style="fill: none; stroke: #000000; stroke-width: 1.5; stroke-linecap: square"/>
    </g>
    <g id="text_2">
     <!-- Rat -->
     <g transform="translate(143.176221 373.120469) scale(0.11 -0.11)">
      <defs>
       <path id="Arial-BoldMT-52" d="M 469 0 
L 469 4581 
L 2416 4581 
Q 3150 4581 3483 4457 
Q 3816 4334 4016 4018 
Q 4216 3703 4216 3297 
Q 4216 2781 3912 2445 
Q 3609 2109 3006 2022 
Q 3306 1847 3501 1637 
Q 3697 1428 4028 894 
L 4588 0 
L 3481 0 
L 2813 997 
Q 2456 1531 2325 1670 
Q 2194 1809 2047 1861 
Q 1900 1913 1581 1913 
L 1394 1913 
L 1394 0 
L 469 0 
z
M 1394 2644 
L 2078 2644 
Q 2744 2644 2909 2700 
Q 3075 2756 3169 2893 
Q 3263 3031 3263 3238 
Q 3263 3469 3139 3611 
Q 3016 3753 2791 3791 
Q 2678 3806 2116 3806 
L 1394 3806 
L 1394 2644 
z
" transform="scale(0.015625)"/>
       <path id="Arial-BoldMT-74" d="M 1981 3319 
L 1981 2619 
L 1381 2619 
L 1381 1281 
Q 1381 875 1398 808 
Q 1416 741 1477 697 
Q 1538 653 1625 653 
Q 1747 653 1978 738 
L 2053 56 
Q 1747 -75 1359 -75 
Q 1122 -75 931 4 
Q 741 84 652 211 
Q 563 338 528 553 
Q 500 706 500 1172 
L 500 2619 
L 97 2619 
L 97 3319 
L 500 3319 
L 500 3978 
L 1381 4491 
L 1381 3319 
L 1981 3319 
z
" transform="scale(0.015625)"/>
      </defs>
      <use xlink:href="#Arial-BoldMT-52"/>
      <use xlink:href="#Arial-BoldMT-61" x="72.216797"/>
      <use xlink:href="#Arial-BoldMT-74" x="127.832031"/>
     </g>
    </g>
   </g>
   <g id="xtick_3">
    <g id="line2d_4">
     <path d="M 212.944676 362.7315 
L 209.741753 365.167861 
" style="fill: none; stroke: #000000; stroke-width: 1.5; stroke-linecap: square"/>
    </g>
    <g id="text_3">
     <!-- Pig -->
     <g transform="translate(195.787516 387.136914) scale(0.11 -0.11)">
      <defs>
       <path id="Arial-BoldMT-50" d="M 466 0 
L 466 4581 
L 1950 4581 
Q 2794 4581 3050 4513 
Q 3444 4409 3709 4064 
Q 3975 3719 3975 3172 
Q 3975 2750 3822 2462 
Q 3669 2175 3433 2011 
Q 3197 1847 2953 1794 
Q 2622 1728 1994 1728 
L 1391 1728 
L 1391 0 
L 466 0 
z
M 1391 3806 
L 1391 2506 
L 1897 2506 
Q 2444 2506 2628 2578 
Q 2813 2650 2917 2803 
Q 3022 2956 3022 3159 
Q 3022 3409 2875 3571 
Q 2728 3734 2503 3775 
Q 2338 3806 1838 3806 
L 1391 3806 
z
" transform="scale(0.015625)"/>
       <path id="Arial-BoldMT-69" d="M 459 3769 
L 459 4581 
L 1338 4581 
L 1338 3769 
L 459 3769 
z
M 459 0 
L 459 3319 
L 1338 3319 
L 1338 0 
L 459 0 
z
" transform="scale(0.015625)"/>
       <path id="Arial-BoldMT-67" d="M 378 -219 
L 1381 -341 
Q 1406 -516 1497 -581 
Q 1622 -675 1891 -675 
Q 2234 -675 2406 -572 
Q 2522 -503 2581 -350 
Q 2622 -241 2622 53 
L 2622 538 
Q 2228 0 1628 0 
Q 959 0 569 566 
Q 263 1013 263 1678 
Q 263 2513 664 2953 
Q 1066 3394 1663 3394 
Q 2278 3394 2678 2853 
L 2678 3319 
L 3500 3319 
L 3500 341 
Q 3500 -247 3403 -537 
Q 3306 -828 3131 -993 
Q 2956 -1159 2664 -1253 
Q 2372 -1347 1925 -1347 
Q 1081 -1347 728 -1058 
Q 375 -769 375 -325 
Q 375 -281 378 -219 
z
M 1163 1728 
Q 1163 1200 1367 954 
Q 1572 709 1872 709 
Q 2194 709 2416 961 
Q 2638 1213 2638 1706 
Q 2638 2222 2425 2472 
Q 2213 2722 1888 2722 
Q 1572 2722 1367 2476 
Q 1163 2231 1163 1728 
z
" transform="scale(0.015625)"/>
      </defs>
      <use xlink:href="#Arial-BoldMT-50"/>
      <use xlink:href="#Arial-BoldMT-69" x="66.699219"/>
      <use xlink:href="#Arial-BoldMT-67" x="94.482422"/>
     </g>
    </g>
   </g>
   <g id="xtick_4">
    <g id="line2d_5">
     <path d="M 266.573244 376.844179 
L 263.455011 379.347911 
" style="fill: none; stroke: #000000; stroke-width: 1.5; stroke-linecap: square"/>
    </g>
    <g id="text_4">
     <!-- Chicken -->
     <g transform="translate(236.695756 401.539532) scale(0.11 -0.11)">
      <defs>
       <path id="Arial-BoldMT-43" d="M 3397 1684 
L 4294 1400 
Q 4088 650 3608 286 
Q 3128 -78 2391 -78 
Q 1478 -78 890 545 
Q 303 1169 303 2250 
Q 303 3394 893 4026 
Q 1484 4659 2447 4659 
Q 3288 4659 3813 4163 
Q 4125 3869 4281 3319 
L 3366 3100 
Q 3284 3456 3026 3662 
Q 2769 3869 2400 3869 
Q 1891 3869 1573 3503 
Q 1256 3138 1256 2319 
Q 1256 1450 1568 1081 
Q 1881 713 2381 713 
Q 2750 713 3015 947 
Q 3281 1181 3397 1684 
z
" transform="scale(0.015625)"/>
       <path id="Arial-BoldMT-68" d="M 1334 4581 
L 1334 2897 
Q 1759 3394 2350 3394 
Q 2653 3394 2897 3281 
Q 3141 3169 3264 2994 
Q 3388 2819 3433 2606 
Q 3478 2394 3478 1947 
L 3478 0 
L 2600 0 
L 2600 1753 
Q 2600 2275 2550 2415 
Q 2500 2556 2373 2639 
Q 2247 2722 2056 2722 
Q 1838 2722 1666 2615 
Q 1494 2509 1414 2295 
Q 1334 2081 1334 1663 
L 1334 0 
L 456 0 
L 456 4581 
L 1334 4581 
z
" transform="scale(0.015625)"/>
       <path id="Arial-BoldMT-63" d="M 3353 2338 
L 2488 2181 
Q 2444 2441 2289 2572 
Q 2134 2703 1888 2703 
Q 1559 2703 1364 2476 
Q 1169 2250 1169 1719 
Q 1169 1128 1367 884 
Q 1566 641 1900 641 
Q 2150 641 2309 783 
Q 2469 925 2534 1272 
L 3397 1125 
Q 3263 531 2881 228 
Q 2500 -75 1859 -75 
Q 1131 -75 698 384 
Q 266 844 266 1656 
Q 266 2478 700 2936 
Q 1134 3394 1875 3394 
Q 2481 3394 2839 3133 
Q 3197 2872 3353 2338 
z
" transform="scale(0.015625)"/>
       <path id="Arial-BoldMT-6b" d="M 428 0 
L 428 4581 
L 1306 4581 
L 1306 2150 
L 2334 3319 
L 3416 3319 
L 2281 2106 
L 3497 0 
L 2550 0 
L 1716 1491 
L 1306 1063 
L 1306 0 
L 428 0 
z
" transform="scale(0.015625)"/>
       <path id="Arial-BoldMT-65" d="M 2381 1056 
L 3256 909 
Q 3088 428 2723 176 
Q 2359 -75 1813 -75 
Q 947 -75 531 491 
Q 203 944 203 1634 
Q 203 2459 634 2926 
Q 1066 3394 1725 3394 
Q 2466 3394 2894 2905 
Q 3322 2416 3303 1406 
L 1103 1406 
Q 1113 1016 1316 798 
Q 1519 581 1822 581 
Q 2028 581 2168 693 
Q 2309 806 2381 1056 
z
M 2431 1944 
Q 2422 2325 2234 2523 
Q 2047 2722 1778 2722 
Q 1491 2722 1303 2513 
Q 1116 2303 1119 1944 
L 2431 1944 
z
" transform="scale(0.015625)"/>
      </defs>
      <use xlink:href="#Arial-BoldMT-43"/>
      <use xlink:href="#Arial-BoldMT-68" x="72.216797"/>
      <use xlink:href="#Arial-BoldMT-69" x="133.300781"/>
      <use xlink:href="#Arial-BoldMT-63" x="161.083984"/>
      <use xlink:href="#Arial-BoldMT-6b" x="216.699219"/>
      <use xlink:href="#Arial-BoldMT-65" x="272.314453"/>
      <use xlink:href="#Arial-BoldMT-6e" x="327.929688"/>
     </g>
    </g>
   </g>
  </g>
  <g id="axis3d_2">
   <g id="line2d_6">
    <path d="M 414.359088 290.063156 
L 298.442474 386.34628 
" style="fill: none; stroke: #000000; stroke-width: 1.5; stroke-linecap: square"/>
   </g>
   <g id="xtick_5">
    <g id="line2d_7">
     <path d="M 314.571653 370.945875 
L 320.094141 372.373644 
" style="fill: none; stroke: #000000; stroke-width: 1.5; stroke-linecap: square"/>
    </g>
    <g id="text_5">
     <!-- Evo2 -->
     <g transform="translate(316.229046 392.647369) scale(0.11 -0.11)">
      <defs>
       <path id="Arial-BoldMT-45" d="M 466 0 
L 466 4581 
L 3863 4581 
L 3863 3806 
L 1391 3806 
L 1391 2791 
L 3691 2791 
L 3691 2019 
L 1391 2019 
L 1391 772 
L 3950 772 
L 3950 0 
L 466 0 
z
" transform="scale(0.015625)"/>
       <path id="Arial-BoldMT-76" d="M 1372 0 
L 34 3319 
L 956 3319 
L 1581 1625 
L 1763 1059 
Q 1834 1275 1853 1344 
Q 1897 1484 1947 1625 
L 2578 3319 
L 3481 3319 
L 2163 0 
L 1372 0 
z
" transform="scale(0.015625)"/>
       <path id="Arial-BoldMT-6f" d="M 256 1706 
Q 256 2144 472 2553 
Q 688 2963 1083 3178 
Q 1478 3394 1966 3394 
Q 2719 3394 3200 2905 
Q 3681 2416 3681 1669 
Q 3681 916 3195 420 
Q 2709 -75 1972 -75 
Q 1516 -75 1102 131 
Q 688 338 472 736 
Q 256 1134 256 1706 
z
M 1156 1659 
Q 1156 1166 1390 903 
Q 1625 641 1969 641 
Q 2313 641 2545 903 
Q 2778 1166 2778 1666 
Q 2778 2153 2545 2415 
Q 2313 2678 1969 2678 
Q 1625 2678 1390 2415 
Q 1156 2153 1156 1659 
z
" transform="scale(0.015625)"/>
       <path id="Arial-BoldMT-32" d="M 3238 816 
L 3238 0 
L 159 0 
Q 209 463 459 877 
Q 709 1291 1447 1975 
Q 2041 2528 2175 2725 
Q 2356 2997 2356 3263 
Q 2356 3556 2198 3714 
Q 2041 3872 1763 3872 
Q 1488 3872 1325 3706 
Q 1163 3541 1138 3156 
L 263 3244 
Q 341 3969 753 4284 
Q 1166 4600 1784 4600 
Q 2463 4600 2850 4234 
Q 3238 3869 3238 3325 
Q 3238 3016 3127 2736 
Q 3016 2456 2775 2150 
Q 2616 1947 2200 1565 
Q 1784 1184 1673 1059 
Q 1563 934 1494 816 
L 3238 816 
z
" transform="scale(0.015625)"/>
      </defs>
      <use xlink:href="#Arial-BoldMT-45"/>
      <use xlink:href="#Arial-BoldMT-76" x="66.699219"/>
      <use xlink:href="#Arial-BoldMT-6f" x="122.314453"/>
      <use xlink:href="#Arial-BoldMT-32" x="183.398438"/>
     </g>
    </g>
   </g>
   <g id="xtick_6">
    <g id="line2d_8">
     <path d="M 397.362282 302.310544 
L 402.62527 303.555489 
" style="fill: none; stroke: #000000; stroke-width: 1.5; stroke-linecap: square"/>
    </g>
    <g id="text_6">
     <!-- DNABERT-2 -->
     <g transform="translate(379.835318 322.990171) scale(0.11 -0.11)">
      <defs>
       <path id="Arial-BoldMT-44" d="M 463 4581 
L 2153 4581 
Q 2725 4581 3025 4494 
Q 3428 4375 3715 4072 
Q 4003 3769 4153 3330 
Q 4303 2891 4303 2247 
Q 4303 1681 4163 1272 
Q 3991 772 3672 463 
Q 3431 228 3022 97 
Q 2716 0 2203 0 
L 463 0 
L 463 4581 
z
M 1388 3806 
L 1388 772 
L 2078 772 
Q 2466 772 2638 816 
Q 2863 872 3011 1006 
Q 3159 1141 3253 1448 
Q 3347 1756 3347 2288 
Q 3347 2819 3253 3103 
Q 3159 3388 2990 3547 
Q 2822 3706 2563 3763 
Q 2369 3806 1803 3806 
L 1388 3806 
z
" transform="scale(0.015625)"/>
       <path id="Arial-BoldMT-4e" d="M 475 0 
L 475 4581 
L 1375 4581 
L 3250 1522 
L 3250 4581 
L 4109 4581 
L 4109 0 
L 3181 0 
L 1334 2988 
L 1334 0 
L 475 0 
z
" transform="scale(0.015625)"/>
       <path id="Arial-BoldMT-41" d="M 4597 0 
L 3591 0 
L 3191 1041 
L 1359 1041 
L 981 0 
L 0 0 
L 1784 4581 
L 2763 4581 
L 4597 0 
z
M 2894 1813 
L 2263 3513 
L 1644 1813 
L 2894 1813 
z
" transform="scale(0.015625)"/>
       <path id="Arial-BoldMT-42" d="M 469 4581 
L 2300 4581 
Q 2844 4581 3111 4536 
Q 3378 4491 3589 4347 
Q 3800 4203 3940 3964 
Q 4081 3725 4081 3428 
Q 4081 3106 3907 2837 
Q 3734 2569 3438 2434 
Q 3856 2313 4081 2019 
Q 4306 1725 4306 1328 
Q 4306 1016 4161 720 
Q 4016 425 3764 248 
Q 3513 72 3144 31 
Q 2913 6 2028 0 
L 469 0 
L 469 4581 
z
M 1394 3819 
L 1394 2759 
L 2000 2759 
Q 2541 2759 2672 2775 
Q 2909 2803 3045 2939 
Q 3181 3075 3181 3297 
Q 3181 3509 3064 3642 
Q 2947 3775 2716 3803 
Q 2578 3819 1925 3819 
L 1394 3819 
z
M 1394 1997 
L 1394 772 
L 2250 772 
Q 2750 772 2884 800 
Q 3091 838 3220 983 
Q 3350 1128 3350 1372 
Q 3350 1578 3250 1722 
Q 3150 1866 2961 1931 
Q 2772 1997 2141 1997 
L 1394 1997 
z
" transform="scale(0.015625)"/>
       <path id="Arial-BoldMT-54" d="M 1497 0 
L 1497 3806 
L 138 3806 
L 138 4581 
L 3778 4581 
L 3778 3806 
L 2422 3806 
L 2422 0 
L 1497 0 
z
" transform="scale(0.015625)"/>
       <path id="Arial-BoldMT-2d" d="M 359 1222 
L 359 2100 
L 2084 2100 
L 2084 1222 
L 359 1222 
z
" transform="scale(0.015625)"/>
      </defs>
      <use xlink:href="#Arial-BoldMT-44"/>
      <use xlink:href="#Arial-BoldMT-4e" x="72.216797"/>
      <use xlink:href="#Arial-BoldMT-41" x="144.433594"/>
      <use xlink:href="#Arial-BoldMT-42" x="216.650391"/>
      <use xlink:href="#Arial-BoldMT-45" x="288.867188"/>
      <use xlink:href="#Arial-BoldMT-52" x="355.566406"/>
      <use xlink:href="#Arial-BoldMT-54" x="427.783203"/>
      <use xlink:href="#Arial-BoldMT-2d" x="483.367188"/>
      <use xlink:href="#Arial-BoldMT-32" x="516.667969"/>
     </g>
    </g>
   </g>
  </g>
  <g id="axis3d_3">
   <g id="line2d_9">
    <path d="M 414.359088 290.063156 
L 420.07965 120.39643 
" style="fill: none; stroke: #000000; stroke-width: 1.5; stroke-linecap: square"/>
   </g>
   <g id="xtick_7">
    <g id="line2d_10">
     <path d="M 412.622718 289.659293 
L 417.836233 290.871907 
" style="fill: none; stroke: #000000; stroke-width: 1.5; stroke-linecap: square"/>
    </g>
    <g id="text_7">
     <!-- 0.0 -->
     <g transform="translate(425.01985 295.837846) scale(0.11 -0.11)">
      <defs>
       <path id="ArialMT-30" d="M 266 2259 
Q 266 3072 433 3567 
Q 600 4063 929 4331 
Q 1259 4600 1759 4600 
Q 2128 4600 2406 4451 
Q 2684 4303 2865 4023 
Q 3047 3744 3150 3342 
Q 3253 2941 3253 2259 
Q 3253 1453 3087 958 
Q 2922 463 2592 192 
Q 2263 -78 1759 -78 
Q 1097 -78 719 397 
Q 266 969 266 2259 
z
M 844 2259 
Q 844 1131 1108 757 
Q 1372 384 1759 384 
Q 2147 384 2411 759 
Q 2675 1134 2675 2259 
Q 2675 3391 2411 3762 
Q 2147 4134 1753 4134 
Q 1366 4134 1134 3806 
Q 844 3388 844 2259 
z
" transform="scale(0.015625)"/>
       <path id="ArialMT-2e" d="M 581 0 
L 581 641 
L 1222 641 
L 1222 0 
L 581 0 
z
" transform="scale(0.015625)"/>
      </defs>
      <use xlink:href="#ArialMT-30"/>
      <use xlink:href="#ArialMT-2e" x="55.615234"/>
      <use xlink:href="#ArialMT-30" x="83.398438"/>
     </g>
    </g>
   </g>
   <g id="xtick_8">
    <g id="line2d_11">
     <path d="M 413.670859 258.237959 
L 418.919347 259.41828 
" style="fill: none; stroke: #000000; stroke-width: 1.5; stroke-linecap: square"/>
    </g>
    <g id="text_8">
     <!-- 0.2 -->
     <g transform="translate(426.195029 264.461686) scale(0.11 -0.11)">
      <defs>
       <path id="ArialMT-32" d="M 3222 541 
L 3222 0 
L 194 0 
Q 188 203 259 391 
Q 375 700 629 1000 
Q 884 1300 1366 1694 
Q 2113 2306 2375 2664 
Q 2638 3022 2638 3341 
Q 2638 3675 2398 3904 
Q 2159 4134 1775 4134 
Q 1369 4134 1125 3890 
Q 881 3647 878 3216 
L 300 3275 
Q 359 3922 746 4261 
Q 1134 4600 1788 4600 
Q 2447 4600 2831 4234 
Q 3216 3869 3216 3328 
Q 3216 3053 3103 2787 
Q 2991 2522 2730 2228 
Q 2469 1934 1863 1422 
Q 1356 997 1212 845 
Q 1069 694 975 541 
L 3222 541 
z
" transform="scale(0.015625)"/>
      </defs>
      <use xlink:href="#ArialMT-30"/>
      <use xlink:href="#ArialMT-2e" x="55.615234"/>
      <use xlink:href="#ArialMT-32" x="83.398438"/>
     </g>
    </g>
   </g>
   <g id="xtick_9">
    <g id="line2d_12">
     <path d="M 414.732594 226.409076 
L 420.016528 227.55616 
" style="fill: none; stroke: #000000; stroke-width: 1.5; stroke-linecap: square"/>
    </g>
    <g id="text_9">
     <!-- 0.4 -->
     <g transform="translate(427.385424 232.679292) scale(0.11 -0.11)">
      <defs>
       <path id="ArialMT-34" d="M 2069 0 
L 2069 1097 
L 81 1097 
L 81 1613 
L 2172 4581 
L 2631 4581 
L 2631 1613 
L 3250 1613 
L 3250 1097 
L 2631 1097 
L 2631 0 
L 2069 0 
z
M 2069 1613 
L 2069 3678 
L 634 1613 
L 2069 1613 
z
" transform="scale(0.015625)"/>
      </defs>
      <use xlink:href="#ArialMT-30"/>
      <use xlink:href="#ArialMT-2e" x="55.615234"/>
      <use xlink:href="#ArialMT-34" x="83.398438"/>
     </g>
    </g>
   </g>
   <g id="xtick_10">
    <g id="line2d_13">
     <path d="M 415.80819 194.164661 
L 421.128052 195.277537 
" style="fill: none; stroke: #000000; stroke-width: 1.5; stroke-linecap: square"/>
    </g>
    <g id="text_10">
     <!-- 0.6 -->
     <g transform="translate(428.591332 200.482724) scale(0.11 -0.11)">
      <defs>
       <path id="ArialMT-36" d="M 3184 3459 
L 2625 3416 
Q 2550 3747 2413 3897 
Q 2184 4138 1850 4138 
Q 1581 4138 1378 3988 
Q 1113 3794 959 3422 
Q 806 3050 800 2363 
Q 1003 2672 1297 2822 
Q 1591 2972 1913 2972 
Q 2475 2972 2870 2558 
Q 3266 2144 3266 1488 
Q 3266 1056 3080 686 
Q 2894 316 2569 119 
Q 2244 -78 1831 -78 
Q 1128 -78 684 439 
Q 241 956 241 2144 
Q 241 3472 731 4075 
Q 1159 4600 1884 4600 
Q 2425 4600 2770 4297 
Q 3116 3994 3184 3459 
z
M 888 1484 
Q 888 1194 1011 928 
Q 1134 663 1356 523 
Q 1578 384 1822 384 
Q 2178 384 2434 671 
Q 2691 959 2691 1453 
Q 2691 1928 2437 2201 
Q 2184 2475 1800 2475 
Q 1419 2475 1153 2201 
Q 888 1928 888 1484 
z
" transform="scale(0.015625)"/>
      </defs>
      <use xlink:href="#ArialMT-30"/>
      <use xlink:href="#ArialMT-2e" x="55.615234"/>
      <use xlink:href="#ArialMT-36" x="83.398438"/>
     </g>
    </g>
   </g>
   <g id="xtick_11">
    <g id="line2d_14">
     <path d="M 416.89792 161.496524 
L 422.2542 162.57419 
" style="fill: none; stroke: #000000; stroke-width: 1.5; stroke-linecap: square"/>
    </g>
    <g id="text_11">
     <!-- 0.8 -->
     <g transform="translate(429.813058 167.863834) scale(0.11 -0.11)">
      <defs>
       <path id="ArialMT-38" d="M 1131 2484 
Q 781 2613 612 2850 
Q 444 3088 444 3419 
Q 444 3919 803 4259 
Q 1163 4600 1759 4600 
Q 2359 4600 2725 4251 
Q 3091 3903 3091 3403 
Q 3091 3084 2923 2848 
Q 2756 2613 2416 2484 
Q 2838 2347 3058 2040 
Q 3278 1734 3278 1309 
Q 3278 722 2862 322 
Q 2447 -78 1769 -78 
Q 1091 -78 675 323 
Q 259 725 259 1325 
Q 259 1772 486 2073 
Q 713 2375 1131 2484 
z
M 1019 3438 
Q 1019 3113 1228 2906 
Q 1438 2700 1772 2700 
Q 2097 2700 2305 2904 
Q 2513 3109 2513 3406 
Q 2513 3716 2298 3927 
Q 2084 4138 1766 4138 
Q 1444 4138 1231 3931 
Q 1019 3725 1019 3438 
z
M 838 1322 
Q 838 1081 952 856 
Q 1066 631 1291 507 
Q 1516 384 1775 384 
Q 2178 384 2440 643 
Q 2703 903 2703 1303 
Q 2703 1709 2433 1975 
Q 2163 2241 1756 2241 
Q 1359 2241 1098 1978 
Q 838 1716 838 1322 
z
" transform="scale(0.015625)"/>
      </defs>
      <use xlink:href="#ArialMT-30"/>
      <use xlink:href="#ArialMT-2e" x="55.615234"/>
      <use xlink:href="#ArialMT-38" x="83.398438"/>
     </g>
    </g>
   </g>
   <g id="xtick_12">
    <g id="line2d_15">
     <path d="M 418.002066 128.396258 
L 423.395265 129.437681 
" style="fill: none; stroke: #000000; stroke-width: 1.5; stroke-linecap: square"/>
    </g>
    <g id="text_12">
     <!-- 1.0 -->
     <g transform="translate(431.050915 134.814255) scale(0.11 -0.11)">
      <defs>
       <path id="ArialMT-31" d="M 2384 0 
L 1822 0 
L 1822 3584 
Q 1619 3391 1289 3197 
Q 959 3003 697 2906 
L 697 3450 
Q 1169 3672 1522 3987 
Q 1875 4303 2022 4600 
L 2384 4600 
L 2384 0 
z
" transform="scale(0.015625)"/>
      </defs>
      <use xlink:href="#ArialMT-31"/>
      <use xlink:href="#ArialMT-2e" x="55.615234"/>
      <use xlink:href="#ArialMT-30" x="83.398438"/>
     </g>
    </g>
   </g>
   <g id="text_13">
    <!-- AUROC -->
    <g transform="translate(472.723873 223.203825) rotate(-88.068921) scale(0.12 -0.12)">
     <defs>
      <path id="Arial-BoldMT-55" d="M 459 4581 
L 1384 4581 
L 1384 2100 
Q 1384 1509 1419 1334 
Q 1478 1053 1701 883 
Q 1925 713 2313 713 
Q 2706 713 2906 873 
Q 3106 1034 3147 1268 
Q 3188 1503 3188 2047 
L 3188 4581 
L 4113 4581 
L 4113 2175 
Q 4113 1350 4038 1009 
Q 3963 669 3761 434 
Q 3559 200 3221 61 
Q 2884 -78 2341 -78 
Q 1684 -78 1345 73 
Q 1006 225 809 467 
Q 613 709 550 975 
Q 459 1369 459 2138 
L 459 4581 
z
" transform="scale(0.015625)"/>
      <path id="Arial-BoldMT-4f" d="M 278 2263 
Q 278 2963 488 3438 
Q 644 3788 914 4066 
Q 1184 4344 1506 4478 
Q 1934 4659 2494 4659 
Q 3506 4659 4114 4031 
Q 4722 3403 4722 2284 
Q 4722 1175 4119 548 
Q 3516 -78 2506 -78 
Q 1484 -78 881 545 
Q 278 1169 278 2263 
z
M 1231 2294 
Q 1231 1516 1590 1114 
Q 1950 713 2503 713 
Q 3056 713 3411 1111 
Q 3766 1509 3766 2306 
Q 3766 3094 3420 3481 
Q 3075 3869 2503 3869 
Q 1931 3869 1581 3476 
Q 1231 3084 1231 2294 
z
" transform="scale(0.015625)"/>
     </defs>
     <use xlink:href="#Arial-BoldMT-41"/>
     <use xlink:href="#Arial-BoldMT-55" x="72.216797"/>
     <use xlink:href="#Arial-BoldMT-52" x="144.433594"/>
     <use xlink:href="#Arial-BoldMT-4f" x="216.650391"/>
     <use xlink:href="#Arial-BoldMT-43" x="294.433594"/>
    </g>
   </g>
  </g>
  <g id="axes_1">
   <g id="Poly3DCollection_1">
    <path d="M 203.755901 260.45457 
L 212.324558 254.624128 
L 223.718631 257.30795 
L 215.197195 263.172534 
z
" clip-path="url(#p173b8c3220)" style="fill: #545454; stroke: #000000"/>
    <path d="M 212.324558 254.624128 
L 211.735245 177.708195 
L 223.306537 180.206483 
L 223.718631 257.30795 
z
" clip-path="url(#p173b8c3220)" style="fill: #424242; stroke: #000000"/>
    <path d="M 203.755901 260.45457 
L 203.027747 183.135866 
L 211.735245 177.708195 
L 212.324558 254.624128 
z
" clip-path="url(#p173b8c3220)" style="fill: #8c8c8c; stroke: #000000"/>
    <path d="M 215.197195 263.172534 
L 223.718631 257.30795 
L 223.306537 180.206483 
L 214.647736 185.66644 
z
" clip-path="url(#p173b8c3220)" style="fill: #424242; stroke: #000000"/>
    <path d="M 203.755901 260.45457 
L 215.197195 263.172534 
L 214.647736 185.66644 
L 203.027747 183.135866 
z
" clip-path="url(#p173b8c3220)" style="fill: #8c8c8c; stroke: #000000"/>
    <path d="M 251.874872 271.885589 
L 260.242095 265.910885 
L 271.917602 268.660997 
L 263.600592 274.671121 
z
" clip-path="url(#p173b8c3220)" style="fill: #545454; stroke: #000000"/>
    <path d="M 203.027747 183.135866 
L 214.647736 185.66644 
L 223.306537 180.206483 
L 211.735245 177.708195 
z
" clip-path="url(#p173b8c3220)" style="fill: #797979; stroke: #000000"/>
    <path d="M 260.242095 265.910885 
L 260.405194 188.216231 
L 272.266864 190.777212 
L 271.917602 268.660997 
z
" clip-path="url(#p173b8c3220)" style="fill: #424242; stroke: #000000"/>
    <path d="M 251.874872 271.885589 
L 251.905504 193.780348 
L 260.405194 188.216231 
L 260.242095 265.910885 
z
" clip-path="url(#p173b8c3220)" style="fill: #8c8c8c; stroke: #000000"/>
    <path d="M 263.600592 274.671121 
L 271.917602 268.660997 
L 272.266864 190.777212 
L 263.819006 196.374843 
z
" clip-path="url(#p173b8c3220)" style="fill: #424242; stroke: #000000"/>
    <path d="M 251.874872 271.885589 
L 263.600592 274.671121 
L 263.819006 196.374843 
L 251.905504 193.780348 
z
" clip-path="url(#p173b8c3220)" style="fill: #8c8c8c; stroke: #000000"/>
    <path d="M 301.195781 283.602138 
L 309.348822 277.47775 
L 321.316321 280.29664 
L 313.216666 286.457789 
z
" clip-path="url(#p173b8c3220)" style="fill: #545454; stroke: #000000"/>
    <path d="M 251.905504 193.780348 
L 263.819006 196.374843 
L 272.266864 190.777212 
L 260.405194 188.216231 
z
" clip-path="url(#p173b8c3220)" style="fill: #797979; stroke: #000000"/>
    <path d="M 309.348822 277.47775 
L 310.302398 198.989236 
L 322.465515 201.615301 
L 321.316321 280.29664 
z
" clip-path="url(#p173b8c3220)" style="fill: #424242; stroke: #000000"/>
    <path d="M 301.195781 283.602138 
L 302.023883 204.69501 
L 310.302398 198.989236 
L 309.348822 277.47775 
z
" clip-path="url(#p173b8c3220)" style="fill: #8c8c8c; stroke: #000000"/>
    <path d="M 313.216666 286.457789 
L 321.316321 280.29664 
L 322.465515 201.615301 
L 314.242163 207.355878 
z
" clip-path="url(#p173b8c3220)" style="fill: #424242; stroke: #000000"/>
    <path d="M 301.195781 283.602138 
L 313.216666 286.457789 
L 314.242163 207.355878 
L 302.023883 204.69501 
z
" clip-path="url(#p173b8c3220)" style="fill: #8c8c8c; stroke: #000000"/>
    <path d="M 351.764232 295.61505 
L 359.689563 289.335282 
L 371.960145 292.225561 
L 364.091569 298.543501 
z
" clip-path="url(#p173b8c3220)" style="fill: #545454; stroke: #000000"/>
    <path d="M 302.023883 204.69501 
L 314.242163 207.355878 
L 322.465515 201.615301 
L 310.302398 198.989236 
z
" clip-path="url(#p173b8c3220)" style="fill: #797979; stroke: #000000"/>
    <path d="M 359.689563 289.335282 
L 361.473868 210.03736 
L 373.950072 212.731022 
L 371.960145 292.225561 
z
" clip-path="url(#p173b8c3220)" style="fill: #424242; stroke: #000000"/>
    <path d="M 351.764232 295.61505 
L 353.430727 215.890271 
L 361.473868 210.03736 
L 359.689563 289.335282 
z
" clip-path="url(#p173b8c3220)" style="fill: #8c8c8c; stroke: #000000"/>
    <path d="M 364.091569 298.543501 
L 371.960145 292.225561 
L 373.950072 212.731022 
L 365.96563 218.620092 
z
" clip-path="url(#p173b8c3220)" style="fill: #424242; stroke: #000000"/>
    <path d="M 351.764232 295.61505 
L 364.091569 298.543501 
L 365.96563 218.620092 
L 353.430727 215.890271 
z
" clip-path="url(#p173b8c3220)" style="fill: #8c8c8c; stroke: #000000"/>
    <path d="M 353.430727 215.890271 
L 365.96563 218.620092 
L 373.950072 212.731022 
L 361.473868 210.03736 
z
" clip-path="url(#p173b8c3220)" style="fill: #797979; stroke: #000000"/>
   </g>
   <g id="text_14">
    <!-- Two-Layer Strategy Comparison (3D) — Front: Evo2, Back: DNABERT-2 -->
    <g transform="translate(7.2 17.391562) scale(0.14 -0.14)">
     <defs>
      <path id="Arial-BoldMT-77" d="M 1078 0 
L 28 3319 
L 881 3319 
L 1503 1144 
L 2075 3319 
L 2922 3319 
L 3475 1144 
L 4109 3319 
L 4975 3319 
L 3909 0 
L 3066 0 
L 2494 2134 
L 1931 0 
L 1078 0 
z
" transform="scale(0.015625)"/>
      <path id="Arial-BoldMT-4c" d="M 491 0 
L 491 4544 
L 1416 4544 
L 1416 772 
L 3716 772 
L 3716 0 
L 491 0 
z
" transform="scale(0.015625)"/>
      <path id="Arial-BoldMT-79" d="M 44 3319 
L 978 3319 
L 1772 963 
L 2547 3319 
L 3456 3319 
L 2284 125 
L 2075 -453 
Q 1959 -744 1854 -897 
Q 1750 -1050 1614 -1145 
Q 1478 -1241 1279 -1294 
Q 1081 -1347 831 -1347 
Q 578 -1347 334 -1294 
L 256 -606 
Q 463 -647 628 -647 
Q 934 -647 1081 -467 
Q 1228 -288 1306 -9 
L 44 3319 
z
" transform="scale(0.015625)"/>
      <path id="Arial-BoldMT-72" d="M 1300 0 
L 422 0 
L 422 3319 
L 1238 3319 
L 1238 2847 
Q 1447 3181 1614 3287 
Q 1781 3394 1994 3394 
Q 2294 3394 2572 3228 
L 2300 2463 
Q 2078 2606 1888 2606 
Q 1703 2606 1575 2504 
Q 1447 2403 1373 2137 
Q 1300 1872 1300 1025 
L 1300 0 
z
" transform="scale(0.015625)"/>
      <path id="Arial-BoldMT-20" transform="scale(0.015625)"/>
      <path id="Arial-BoldMT-53" d="M 231 1491 
L 1131 1578 
Q 1213 1125 1461 912 
Q 1709 700 2131 700 
Q 2578 700 2804 889 
Q 3031 1078 3031 1331 
Q 3031 1494 2936 1608 
Q 2841 1722 2603 1806 
Q 2441 1863 1863 2006 
Q 1119 2191 819 2459 
Q 397 2838 397 3381 
Q 397 3731 595 4036 
Q 794 4341 1167 4500 
Q 1541 4659 2069 4659 
Q 2931 4659 3367 4281 
Q 3803 3903 3825 3272 
L 2900 3231 
Q 2841 3584 2645 3739 
Q 2450 3894 2059 3894 
Q 1656 3894 1428 3728 
Q 1281 3622 1281 3444 
Q 1281 3281 1419 3166 
Q 1594 3019 2269 2859 
Q 2944 2700 3267 2529 
Q 3591 2359 3773 2064 
Q 3956 1769 3956 1334 
Q 3956 941 3737 597 
Q 3519 253 3119 86 
Q 2719 -81 2122 -81 
Q 1253 -81 787 320 
Q 322 722 231 1491 
z
" transform="scale(0.015625)"/>
      <path id="Arial-BoldMT-70" d="M 434 3319 
L 1253 3319 
L 1253 2831 
Q 1413 3081 1684 3237 
Q 1956 3394 2288 3394 
Q 2866 3394 3269 2941 
Q 3672 2488 3672 1678 
Q 3672 847 3265 386 
Q 2859 -75 2281 -75 
Q 2006 -75 1782 34 
Q 1559 144 1313 409 
L 1313 -1263 
L 434 -1263 
L 434 3319 
z
M 1303 1716 
Q 1303 1156 1525 889 
Q 1747 622 2066 622 
Q 2372 622 2575 867 
Q 2778 1113 2778 1672 
Q 2778 2194 2568 2447 
Q 2359 2700 2050 2700 
Q 1728 2700 1515 2451 
Q 1303 2203 1303 1716 
z
" transform="scale(0.015625)"/>
      <path id="Arial-BoldMT-73" d="M 150 947 
L 1031 1081 
Q 1088 825 1259 692 
Q 1431 559 1741 559 
Q 2081 559 2253 684 
Q 2369 772 2369 919 
Q 2369 1019 2306 1084 
Q 2241 1147 2013 1200 
Q 950 1434 666 1628 
Q 272 1897 272 2375 
Q 272 2806 612 3100 
Q 953 3394 1669 3394 
Q 2350 3394 2681 3172 
Q 3013 2950 3138 2516 
L 2309 2363 
Q 2256 2556 2107 2659 
Q 1959 2763 1684 2763 
Q 1338 2763 1188 2666 
Q 1088 2597 1088 2488 
Q 1088 2394 1175 2328 
Q 1294 2241 1995 2081 
Q 2697 1922 2975 1691 
Q 3250 1456 3250 1038 
Q 3250 581 2869 253 
Q 2488 -75 1741 -75 
Q 1063 -75 667 200 
Q 272 475 150 947 
z
" transform="scale(0.015625)"/>
      <path id="Arial-BoldMT-28" d="M 1916 -1347 
L 1313 -1347 
Q 834 -625 584 153 
Q 334 931 334 1659 
Q 334 2563 644 3369 
Q 913 4069 1325 4659 
L 1925 4659 
Q 1497 3713 1336 3048 
Q 1175 2384 1175 1641 
Q 1175 1128 1270 590 
Q 1366 53 1531 -431 
Q 1641 -750 1916 -1347 
z
" transform="scale(0.015625)"/>
      <path id="Arial-BoldMT-33" d="M 241 1216 
L 1091 1319 
Q 1131 994 1309 822 
Q 1488 650 1741 650 
Q 2013 650 2198 856 
Q 2384 1063 2384 1413 
Q 2384 1744 2206 1937 
Q 2028 2131 1772 2131 
Q 1603 2131 1369 2066 
L 1466 2781 
Q 1822 2772 2009 2936 
Q 2197 3100 2197 3372 
Q 2197 3603 2059 3740 
Q 1922 3878 1694 3878 
Q 1469 3878 1309 3722 
Q 1150 3566 1116 3266 
L 306 3403 
Q 391 3819 561 4067 
Q 731 4316 1036 4458 
Q 1341 4600 1719 4600 
Q 2366 4600 2756 4188 
Q 3078 3850 3078 3425 
Q 3078 2822 2419 2463 
Q 2813 2378 3048 2084 
Q 3284 1791 3284 1375 
Q 3284 772 2843 347 
Q 2403 -78 1747 -78 
Q 1125 -78 715 280 
Q 306 638 241 1216 
z
" transform="scale(0.015625)"/>
      <path id="Arial-BoldMT-29" d="M 216 -1347 
Q 475 -791 581 -494 
Q 688 -197 778 190 
Q 869 578 912 926 
Q 956 1275 956 1641 
Q 956 2384 797 3048 
Q 638 3713 209 4659 
L 806 4659 
Q 1278 3988 1539 3234 
Q 1800 2481 1800 1706 
Q 1800 1053 1594 306 
Q 1359 -531 822 -1347 
L 216 -1347 
z
" transform="scale(0.015625)"/>
      <path id="Arial-BoldMT-2014" d="M 0 1331 
L 0 1988 
L 6400 1988 
L 6400 1331 
L 0 1331 
z
" transform="scale(0.015625)"/>
      <path id="Arial-BoldMT-46" d="M 472 0 
L 472 4581 
L 3613 4581 
L 3613 3806 
L 1397 3806 
L 1397 2722 
L 3309 2722 
L 3309 1947 
L 1397 1947 
L 1397 0 
L 472 0 
z
" transform="scale(0.015625)"/>
      <path id="Arial-BoldMT-3a" d="M 628 2441 
L 628 3319 
L 1506 3319 
L 1506 2441 
L 628 2441 
z
M 628 0 
L 628 878 
L 1506 878 
L 1506 0 
L 628 0 
z
" transform="scale(0.015625)"/>
      <path id="Arial-BoldMT-2c" d="M 438 878 
L 1316 878 
L 1316 250 
Q 1316 -131 1250 -351 
Q 1184 -572 1001 -747 
Q 819 -922 538 -1022 
L 366 -659 
Q 631 -572 743 -419 
Q 856 -266 863 0 
L 438 0 
L 438 878 
z
" transform="scale(0.015625)"/>
     </defs>
     <use xlink:href="#Arial-BoldMT-54"/>
     <use xlink:href="#Arial-BoldMT-77" x="53.708984"/>
     <use xlink:href="#Arial-BoldMT-6f" x="131.492188"/>
     <use xlink:href="#Arial-BoldMT-2d" x="192.576172"/>
     <use xlink:href="#Arial-BoldMT-4c" x="225.876953"/>
     <use xlink:href="#Arial-BoldMT-61" x="286.960938"/>
     <use xlink:href="#Arial-BoldMT-79" x="342.576172"/>
     <use xlink:href="#Arial-BoldMT-65" x="398.191406"/>
     <use xlink:href="#Arial-BoldMT-72" x="453.806641"/>
     <use xlink:href="#Arial-BoldMT-20" x="492.722656"/>
     <use xlink:href="#Arial-BoldMT-53" x="520.505859"/>
     <use xlink:href="#Arial-BoldMT-74" x="587.205078"/>
     <use xlink:href="#Arial-BoldMT-72" x="620.505859"/>
     <use xlink:href="#Arial-BoldMT-61" x="659.421875"/>
     <use xlink:href="#Arial-BoldMT-74" x="715.037109"/>
     <use xlink:href="#Arial-BoldMT-65" x="748.337891"/>
     <use xlink:href="#Arial-BoldMT-67" x="803.953125"/>
     <use xlink:href="#Arial-BoldMT-79" x="865.037109"/>
     <use xlink:href="#Arial-BoldMT-20" x="920.652344"/>
     <use xlink:href="#Arial-BoldMT-43" x="948.435547"/>
     <use xlink:href="#Arial-BoldMT-6f" x="1020.652344"/>
     <use xlink:href="#Arial-BoldMT-6d" x="1081.736328"/>
     <use xlink:href="#Arial-BoldMT-70" x="1170.652344"/>
     <use xlink:href="#Arial-BoldMT-61" x="1231.736328"/>
     <use xlink:href="#Arial-BoldMT-72" x="1287.351562"/>
     <use xlink:href="#Arial-BoldMT-69" x="1326.267578"/>
     <use xlink:href="#Arial-BoldMT-73" x="1354.050781"/>
     <use xlink:href="#Arial-BoldMT-6f" x="1409.666016"/>
     <use xlink:href="#Arial-BoldMT-6e" x="1470.75"/>
     <use xlink:href="#Arial-BoldMT-20" x="1531.833984"/>
     <use xlink:href="#Arial-BoldMT-28" x="1559.617188"/>
     <use xlink:href="#Arial-BoldMT-33" x="1592.917969"/>
     <use xlink:href="#Arial-BoldMT-44" x="1648.533203"/>
     <use xlink:href="#Arial-BoldMT-29" x="1720.75"/>
     <use xlink:href="#Arial-BoldMT-20" x="1754.050781"/>
     <use xlink:href="#Arial-BoldMT-2014" x="1781.833984"/>
     <use xlink:href="#Arial-BoldMT-20" x="1881.833984"/>
     <use xlink:href="#Arial-BoldMT-46" x="1909.617188"/>
     <use xlink:href="#Arial-BoldMT-72" x="1970.701172"/>
     <use xlink:href="#Arial-BoldMT-6f" x="2009.617188"/>
     <use xlink:href="#Arial-BoldMT-6e" x="2070.701172"/>
     <use xlink:href="#Arial-BoldMT-74" x="2131.785156"/>
     <use xlink:href="#Arial-BoldMT-3a" x="2165.085938"/>
     <use xlink:href="#Arial-BoldMT-20" x="2198.386719"/>
     <use xlink:href="#Arial-BoldMT-45" x="2226.169922"/>
     <use xlink:href="#Arial-BoldMT-76" x="2292.869141"/>
     <use xlink:href="#Arial-BoldMT-6f" x="2348.484375"/>
     <use xlink:href="#Arial-BoldMT-32" x="2409.568359"/>
     <use xlink:href="#Arial-BoldMT-2c" x="2465.183594"/>
     <use xlink:href="#Arial-BoldMT-20" x="2492.966797"/>
     <use xlink:href="#Arial-BoldMT-42" x="2520.75"/>
     <use xlink:href="#Arial-BoldMT-61" x="2592.966797"/>
     <use xlink:href="#Arial-BoldMT-63" x="2648.582031"/>
     <use xlink:href="#Arial-BoldMT-6b" x="2704.197266"/>
     <use xlink:href="#Arial-BoldMT-3a" x="2759.8125"/>
     <use xlink:href="#Arial-BoldMT-20" x="2793.113281"/>
     <use xlink:href="#Arial-BoldMT-44" x="2820.896484"/>
     <use xlink:href="#Arial-BoldMT-4e" x="2893.113281"/>
     <use xlink:href="#Arial-BoldMT-41" x="2965.330078"/>
     <use xlink:href="#Arial-BoldMT-42" x="3037.546875"/>
     <use xlink:href="#Arial-BoldMT-45" x="3109.763672"/>
     <use xlink:href="#Arial-BoldMT-52" x="3176.462891"/>
     <use xlink:href="#Arial-BoldMT-54" x="3248.679688"/>
     <use xlink:href="#Arial-BoldMT-2d" x="3304.263672"/>
     <use xlink:href="#Arial-BoldMT-32" x="3337.564453"/>
    </g>
   </g>
   <g id="Poly3DCollection_2">
    <path d="M 215.197195 263.172534 
L 223.718631 257.30795 
L 235.179313 260.007461 
L 226.7058 265.906489 
z
" clip-path="url(#p173b8c3220)" style="fill: #395d72; stroke: #000000"/>
    <path d="M 223.718631 257.30795 
L 222.915551 107.054263 
L 234.725669 109.383984 
L 235.179313 260.007461 
z
" clip-path="url(#p173b8c3220)" style="fill: #2d4859; stroke: #000000"/>
    <path d="M 263.600592 274.671121 
L 271.917602 268.660997 
L 283.662205 271.427385 
L 275.396152 277.473244 
z
" clip-path="url(#p173b8c3220)" style="fill: #395d72; stroke: #000000"/>
    <path d="M 215.197195 263.172534 
L 214.12632 112.116023 
L 222.915551 107.054263 
L 223.718631 257.30795 
z
" clip-path="url(#p173b8c3220)" style="fill: #5f9abd; stroke: #000000"/>
    <path d="M 226.7058 265.906489 
L 235.179313 260.007461 
L 234.725669 109.383984 
L 225.987324 114.476388 
z
" clip-path="url(#p173b8c3220)" style="fill: #2d4859; stroke: #000000"/>
    <path d="M 215.197195 263.172534 
L 226.7058 265.906489 
L 225.987324 114.476388 
L 214.12632 112.116023 
z
" clip-path="url(#p173b8c3220)" style="fill: #5f9abd; stroke: #000000"/>
    <path d="M 271.917602 268.660997 
L 272.417752 157.129906 
L 284.43214 159.621925 
L 283.662205 271.427385 
z
" clip-path="url(#p173b8c3220)" style="fill: #2d4859; stroke: #000000"/>
    <path d="M 263.600592 274.671121 
L 263.91338 162.544378 
L 272.417752 157.129906 
L 271.917602 268.660997 
z
" clip-path="url(#p173b8c3220)" style="fill: #5f9abd; stroke: #000000"/>
    <path d="M 313.216666 286.457789 
L 321.316321 280.29664 
L 333.355527 283.13242 
L 325.310049 289.330662 
z
" clip-path="url(#p173b8c3220)" style="fill: #395d72; stroke: #000000"/>
    <path d="M 275.396152 277.473244 
L 283.662205 271.427385 
L 284.43214 159.621925 
L 275.981106 165.06933 
z
" clip-path="url(#p173b8c3220)" style="fill: #2d4859; stroke: #000000"/>
    <path d="M 263.600592 274.671121 
L 275.396152 277.473244 
L 275.981106 165.06933 
L 263.91338 162.544378 
z
" clip-path="url(#p173b8c3220)" style="fill: #5f9abd; stroke: #000000"/>
    <path d="M 214.12632 112.116023 
L 225.987324 114.476388 
L 234.725669 109.383984 
L 222.915551 107.054263 
z
" clip-path="url(#p173b8c3220)" style="fill: #5285a4; stroke: #000000"/>
    <path d="M 321.316321 280.29664 
L 322.937516 169.299014 
L 335.256039 171.859296 
L 333.355527 283.13242 
z
" clip-path="url(#p173b8c3220)" style="fill: #2d4859; stroke: #000000"/>
    <path d="M 313.216666 286.457789 
L 314.663421 174.862047 
L 322.937516 169.299014 
L 321.316321 280.29664 
z
" clip-path="url(#p173b8c3220)" style="fill: #5f9abd; stroke: #000000"/>
    <path d="M 263.91338 162.544378 
L 275.981106 165.06933 
L 284.43214 159.621925 
L 272.417752 157.129906 
z
" clip-path="url(#p173b8c3220)" style="fill: #5285a4; stroke: #000000"/>
    <path d="M 364.091569 298.543501 
L 371.960145 292.225561 
L 384.305181 295.133378 
L 376.494199 301.489837 
z
" clip-path="url(#p173b8c3220)" style="fill: #395d72; stroke: #000000"/>
    <path d="M 325.310049 289.330662 
L 333.355527 283.13242 
L 335.256039 171.859296 
L 327.038689 177.456588 
z
" clip-path="url(#p173b8c3220)" style="fill: #2d4859; stroke: #000000"/>
    <path d="M 313.216666 286.457789 
L 325.310049 289.330662 
L 327.038689 177.456588 
L 314.663421 174.862047 
z
" clip-path="url(#p173b8c3220)" style="fill: #5f9abd; stroke: #000000"/>
    <path d="M 371.960145 292.225561 
L 375.075356 167.777654 
L 387.746278 170.372728 
L 384.305181 295.133378 
z
" clip-path="url(#p173b8c3220)" style="fill: #2d4859; stroke: #000000"/>
    <path d="M 314.663421 174.862047 
L 327.038689 177.456588 
L 335.256039 171.859296 
L 322.937516 169.299014 
z
" clip-path="url(#p173b8c3220)" style="fill: #5285a4; stroke: #000000"/>
    <path d="M 364.091569 298.543501 
L 367.025571 173.416595 
L 375.075356 167.777654 
L 371.960145 292.225561 
z
" clip-path="url(#p173b8c3220)" style="fill: #5f9abd; stroke: #000000"/>
    <path d="M 376.494199 301.489837 
L 384.305181 295.133378 
L 387.746278 170.372728 
L 379.757214 176.046934 
z
" clip-path="url(#p173b8c3220)" style="fill: #2d4859; stroke: #000000"/>
    <path d="M 364.091569 298.543501 
L 376.494199 301.489837 
L 379.757214 176.046934 
L 367.025571 173.416595 
z
" clip-path="url(#p173b8c3220)" style="fill: #5f9abd; stroke: #000000"/>
    <path d="M 367.025571 173.416595 
L 379.757214 176.046934 
L 387.746278 170.372728 
L 375.075356 167.777654 
z
" clip-path="url(#p173b8c3220)" style="fill: #5285a4; stroke: #000000"/>
   </g>
   <g id="Poly3DCollection_3">
    <path d="M 113.185249 323.480377 
L 122.941085 316.832743 
L 131.850176 319.125418 
L 122.131819 325.8042 
z
" clip-path="url(#p173b8c3220)" style="fill: #545454; stroke: #000000"/>
    <path d="M 122.941085 316.832743 
L 119.906031 200.957032 
L 129.021268 203.027911 
L 131.850176 319.125418 
z
" clip-path="url(#p173b8c3220)" style="fill: #424242; stroke: #000000"/>
    <path d="M 113.185249 323.480377 
L 109.894445 206.962203 
L 119.906031 200.957032 
L 122.941085 316.832743 
z
" clip-path="url(#p173b8c3220)" style="fill: #8c8c8c; stroke: #000000"/>
    <path d="M 163.425798 336.530088 
L 172.967524 329.706602 
L 182.111759 332.059789 
L 172.610132 338.915668 
z
" clip-path="url(#p173b8c3220)" style="fill: #545454; stroke: #000000"/>
    <path d="M 122.131819 325.8042 
L 131.850176 319.125418 
L 129.021268 203.027911 
L 119.048881 209.061897 
z
" clip-path="url(#p173b8c3220)" style="fill: #424242; stroke: #000000"/>
    <path d="M 113.185249 323.480377 
L 122.131819 325.8042 
L 119.048881 209.061897 
L 109.894445 206.962203 
z
" clip-path="url(#p173b8c3220)" style="fill: #8c8c8c; stroke: #000000"/>
    <path d="M 172.967524 329.706602 
L 171.70224 250.22074 
L 180.994081 252.421796 
L 182.111759 332.059789 
z
" clip-path="url(#p173b8c3220)" style="fill: #424242; stroke: #000000"/>
    <path d="M 163.425798 336.530088 
L 161.993793 256.603563 
L 171.70224 250.22074 
L 172.967524 329.706602 
z
" clip-path="url(#p173b8c3220)" style="fill: #8c8c8c; stroke: #000000"/>
    <path d="M 172.610132 338.915668 
L 182.111759 332.059789 
L 180.994081 252.421796 
L 171.327025 258.835422 
z
" clip-path="url(#p173b8c3220)" style="fill: #424242; stroke: #000000"/>
    <path d="M 109.894445 206.962203 
L 119.048881 209.061897 
L 129.021268 203.027911 
L 119.906031 200.957032 
z
" clip-path="url(#p173b8c3220)" style="fill: #797979; stroke: #000000"/>
    <path d="M 163.425798 336.530088 
L 172.610132 338.915668 
L 171.327025 258.835422 
L 161.993793 256.603563 
z
" clip-path="url(#p173b8c3220)" style="fill: #8c8c8c; stroke: #000000"/>
    <path d="M 215.008909 349.928521 
L 224.321587 342.922113 
L 233.7104 345.33824 
L 224.440612 352.378355 
z
" clip-path="url(#p173b8c3220)" style="fill: #545454; stroke: #000000"/>
    <path d="M 161.993793 256.603563 
L 171.327025 258.835422 
L 180.994081 252.421796 
L 171.70224 250.22074 
z
" clip-path="url(#p173b8c3220)" style="fill: #797979; stroke: #000000"/>
    <path d="M 224.321587 342.922113 
L 223.877233 259.313518 
L 233.428112 261.567979 
L 233.7104 345.33824 
z
" clip-path="url(#p173b8c3220)" style="fill: #424242; stroke: #000000"/>
    <path d="M 215.008909 349.928521 
L 214.398844 265.851631 
L 223.877233 259.313518 
L 224.321587 342.922113 
z
" clip-path="url(#p173b8c3220)" style="fill: #8c8c8c; stroke: #000000"/>
    <path d="M 224.440612 352.378355 
L 233.7104 345.33824 
L 233.428112 261.567979 
L 223.994105 268.138094 
z
" clip-path="url(#p173b8c3220)" style="fill: #424242; stroke: #000000"/>
    <path d="M 215.008909 349.928521 
L 224.440612 352.378355 
L 223.994105 268.138094 
L 214.398844 265.851631 
z
" clip-path="url(#p173b8c3220)" style="fill: #8c8c8c; stroke: #000000"/>
    <path d="M 267.989126 363.689846 
L 277.056832 356.493059 
L 286.700169 358.974685 
L 277.678329 366.206564 
z
" clip-path="url(#p173b8c3220)" style="fill: #545454; stroke: #000000"/>
    <path d="M 214.398844 265.851631 
L 223.994105 268.138094 
L 233.428112 261.567979 
L 223.877233 259.313518 
z
" clip-path="url(#p173b8c3220)" style="fill: #797979; stroke: #000000"/>
    <path d="M 277.056832 356.493059 
L 277.522678 273.820253 
L 287.333333 276.140583 
L 286.700169 358.974685 
z
" clip-path="url(#p173b8c3220)" style="fill: #424242; stroke: #000000"/>
    <path d="M 267.989126 363.689846 
L 268.301326 280.54981 
L 277.522678 273.820253 
L 277.056832 356.493059 
z
" clip-path="url(#p173b8c3220)" style="fill: #8c8c8c; stroke: #000000"/>
    <path d="M 277.678329 366.206564 
L 286.700169 358.974685 
L 287.333333 276.140583 
L 278.159462 282.903522 
z
" clip-path="url(#p173b8c3220)" style="fill: #424242; stroke: #000000"/>
    <path d="M 267.989126 363.689846 
L 277.678329 366.206564 
L 278.159462 282.903522 
L 268.301326 280.54981 
z
" clip-path="url(#p173b8c3220)" style="fill: #8c8c8c; stroke: #000000"/>
    <path d="M 268.301326 280.54981 
L 278.159462 282.903522 
L 287.333333 276.140583 
L 277.522678 273.820253 
z
" clip-path="url(#p173b8c3220)" style="fill: #797979; stroke: #000000"/>
   </g>
   <g id="legend_1">
    <g id="patch_6">
     <path d="M 369.375125 91.262969 
L 489.263094 91.262969 
Q 491.463094 91.262969 491.463094 89.062969 
L 491.463094 43.091562 
Q 491.463094 40.891562 489.263094 40.891562 
L 369.375125 40.891562 
Q 367.175125 40.891562 367.175125 43.091562 
L 367.175125 89.062969 
Q 367.175125 91.262969 369.375125 91.262969 
z
" style="fill: #ffffff; opacity: 0.8; stroke: #cccccc; stroke-linejoin: miter"/>
    </g>
    <g id="text_15">
     <!-- Strategy -->
     <g transform="translate(408.837625 53.299219) scale(0.11 -0.11)">
      <defs>
       <path id="ArialMT-53" d="M 288 1472 
L 859 1522 
Q 900 1178 1048 958 
Q 1197 738 1509 602 
Q 1822 466 2213 466 
Q 2559 466 2825 569 
Q 3091 672 3220 851 
Q 3350 1031 3350 1244 
Q 3350 1459 3225 1620 
Q 3100 1781 2813 1891 
Q 2628 1963 1997 2114 
Q 1366 2266 1113 2400 
Q 784 2572 623 2826 
Q 463 3081 463 3397 
Q 463 3744 659 4045 
Q 856 4347 1234 4503 
Q 1613 4659 2075 4659 
Q 2584 4659 2973 4495 
Q 3363 4331 3572 4012 
Q 3781 3694 3797 3291 
L 3216 3247 
Q 3169 3681 2898 3903 
Q 2628 4125 2100 4125 
Q 1550 4125 1298 3923 
Q 1047 3722 1047 3438 
Q 1047 3191 1225 3031 
Q 1400 2872 2139 2705 
Q 2878 2538 3153 2413 
Q 3553 2228 3743 1945 
Q 3934 1663 3934 1294 
Q 3934 928 3725 604 
Q 3516 281 3123 101 
Q 2731 -78 2241 -78 
Q 1619 -78 1198 103 
Q 778 284 539 648 
Q 300 1013 288 1472 
z
" transform="scale(0.015625)"/>
       <path id="ArialMT-74" d="M 1650 503 
L 1731 6 
Q 1494 -44 1306 -44 
Q 1000 -44 831 53 
Q 663 150 594 308 
Q 525 466 525 972 
L 525 2881 
L 113 2881 
L 113 3319 
L 525 3319 
L 525 4141 
L 1084 4478 
L 1084 3319 
L 1650 3319 
L 1650 2881 
L 1084 2881 
L 1084 941 
Q 1084 700 1114 631 
Q 1144 563 1211 522 
Q 1278 481 1403 481 
Q 1497 481 1650 503 
z
" transform="scale(0.015625)"/>
       <path id="ArialMT-72" d="M 416 0 
L 416 3319 
L 922 3319 
L 922 2816 
Q 1116 3169 1280 3281 
Q 1444 3394 1641 3394 
Q 1925 3394 2219 3213 
L 2025 2691 
Q 1819 2813 1613 2813 
Q 1428 2813 1281 2702 
Q 1134 2591 1072 2394 
Q 978 2094 978 1738 
L 978 0 
L 416 0 
z
" transform="scale(0.015625)"/>
       <path id="ArialMT-61" d="M 2588 409 
Q 2275 144 1986 34 
Q 1697 -75 1366 -75 
Q 819 -75 525 192 
Q 231 459 231 875 
Q 231 1119 342 1320 
Q 453 1522 633 1644 
Q 813 1766 1038 1828 
Q 1203 1872 1538 1913 
Q 2219 1994 2541 2106 
Q 2544 2222 2544 2253 
Q 2544 2597 2384 2738 
Q 2169 2928 1744 2928 
Q 1347 2928 1158 2789 
Q 969 2650 878 2297 
L 328 2372 
Q 403 2725 575 2942 
Q 747 3159 1072 3276 
Q 1397 3394 1825 3394 
Q 2250 3394 2515 3294 
Q 2781 3194 2906 3042 
Q 3031 2891 3081 2659 
Q 3109 2516 3109 2141 
L 3109 1391 
Q 3109 606 3145 398 
Q 3181 191 3288 0 
L 2700 0 
Q 2613 175 2588 409 
z
M 2541 1666 
Q 2234 1541 1622 1453 
Q 1275 1403 1131 1340 
Q 988 1278 909 1158 
Q 831 1038 831 891 
Q 831 666 1001 516 
Q 1172 366 1500 366 
Q 1825 366 2078 508 
Q 2331 650 2450 897 
Q 2541 1088 2541 1459 
L 2541 1666 
z
" transform="scale(0.015625)"/>
       <path id="ArialMT-65" d="M 2694 1069 
L 3275 997 
Q 3138 488 2766 206 
Q 2394 -75 1816 -75 
Q 1088 -75 661 373 
Q 234 822 234 1631 
Q 234 2469 665 2931 
Q 1097 3394 1784 3394 
Q 2450 3394 2872 2941 
Q 3294 2488 3294 1666 
Q 3294 1616 3291 1516 
L 816 1516 
Q 847 969 1125 678 
Q 1403 388 1819 388 
Q 2128 388 2347 550 
Q 2566 713 2694 1069 
z
M 847 1978 
L 2700 1978 
Q 2663 2397 2488 2606 
Q 2219 2931 1791 2931 
Q 1403 2931 1139 2672 
Q 875 2413 847 1978 
z
" transform="scale(0.015625)"/>
       <path id="ArialMT-67" d="M 319 -275 
L 866 -356 
Q 900 -609 1056 -725 
Q 1266 -881 1628 -881 
Q 2019 -881 2231 -725 
Q 2444 -569 2519 -288 
Q 2563 -116 2559 434 
Q 2191 0 1641 0 
Q 956 0 581 494 
Q 206 988 206 1678 
Q 206 2153 378 2554 
Q 550 2956 876 3175 
Q 1203 3394 1644 3394 
Q 2231 3394 2613 2919 
L 2613 3319 
L 3131 3319 
L 3131 450 
Q 3131 -325 2973 -648 
Q 2816 -972 2473 -1159 
Q 2131 -1347 1631 -1347 
Q 1038 -1347 672 -1080 
Q 306 -813 319 -275 
z
M 784 1719 
Q 784 1066 1043 766 
Q 1303 466 1694 466 
Q 2081 466 2343 764 
Q 2606 1063 2606 1700 
Q 2606 2309 2336 2618 
Q 2066 2928 1684 2928 
Q 1309 2928 1046 2623 
Q 784 2319 784 1719 
z
" transform="scale(0.015625)"/>
       <path id="ArialMT-79" d="M 397 -1278 
L 334 -750 
Q 519 -800 656 -800 
Q 844 -800 956 -737 
Q 1069 -675 1141 -563 
Q 1194 -478 1313 -144 
Q 1328 -97 1363 -6 
L 103 3319 
L 709 3319 
L 1400 1397 
Q 1534 1031 1641 628 
Q 1738 1016 1872 1384 
L 2581 3319 
L 3144 3319 
L 1881 -56 
Q 1678 -603 1566 -809 
Q 1416 -1088 1222 -1217 
Q 1028 -1347 759 -1347 
Q 597 -1347 397 -1278 
z
" transform="scale(0.015625)"/>
      </defs>
      <use xlink:href="#ArialMT-53"/>
      <use xlink:href="#ArialMT-74" x="66.699219"/>
      <use xlink:href="#ArialMT-72" x="94.482422"/>
      <use xlink:href="#ArialMT-61" x="127.783203"/>
      <use xlink:href="#ArialMT-74" x="183.398438"/>
      <use xlink:href="#ArialMT-65" x="211.181641"/>
      <use xlink:href="#ArialMT-67" x="266.796875"/>
      <use xlink:href="#ArialMT-79" x="322.412109"/>
     </g>
    </g>
    <g id="patch_7">
     <path d="M 371.575125 68.987969 
L 393.575125 68.987969 
L 393.575125 61.287969 
L 371.575125 61.287969 
z
" style="fill: #9e9e9e; stroke: #000000; stroke-linejoin: miter"/>
    </g>
    <g id="text_16">
     <!-- Zero-shot -->
     <g transform="translate(402.375125 68.987969) scale(0.11 -0.11)">
      <defs>
       <path id="ArialMT-5a" d="M 128 0 
L 128 563 
L 2475 3497 
Q 2725 3809 2950 4041 
L 394 4041 
L 394 4581 
L 3675 4581 
L 3675 4041 
L 1103 863 
L 825 541 
L 3750 541 
L 3750 0 
L 128 0 
z
" transform="scale(0.015625)"/>
       <path id="ArialMT-6f" d="M 213 1659 
Q 213 2581 725 3025 
Q 1153 3394 1769 3394 
Q 2453 3394 2887 2945 
Q 3322 2497 3322 1706 
Q 3322 1066 3130 698 
Q 2938 331 2570 128 
Q 2203 -75 1769 -75 
Q 1072 -75 642 372 
Q 213 819 213 1659 
z
M 791 1659 
Q 791 1022 1069 705 
Q 1347 388 1769 388 
Q 2188 388 2466 706 
Q 2744 1025 2744 1678 
Q 2744 2294 2464 2611 
Q 2184 2928 1769 2928 
Q 1347 2928 1069 2612 
Q 791 2297 791 1659 
z
" transform="scale(0.015625)"/>
       <path id="ArialMT-2d" d="M 203 1375 
L 203 1941 
L 1931 1941 
L 1931 1375 
L 203 1375 
z
" transform="scale(0.015625)"/>
       <path id="ArialMT-73" d="M 197 991 
L 753 1078 
Q 800 744 1014 566 
Q 1228 388 1613 388 
Q 2000 388 2187 545 
Q 2375 703 2375 916 
Q 2375 1106 2209 1216 
Q 2094 1291 1634 1406 
Q 1016 1563 777 1677 
Q 538 1791 414 1992 
Q 291 2194 291 2438 
Q 291 2659 392 2848 
Q 494 3038 669 3163 
Q 800 3259 1026 3326 
Q 1253 3394 1513 3394 
Q 1903 3394 2198 3281 
Q 2494 3169 2634 2976 
Q 2775 2784 2828 2463 
L 2278 2388 
Q 2241 2644 2061 2787 
Q 1881 2931 1553 2931 
Q 1166 2931 1000 2803 
Q 834 2675 834 2503 
Q 834 2394 903 2306 
Q 972 2216 1119 2156 
Q 1203 2125 1616 2013 
Q 2213 1853 2448 1751 
Q 2684 1650 2818 1456 
Q 2953 1263 2953 975 
Q 2953 694 2789 445 
Q 2625 197 2315 61 
Q 2006 -75 1616 -75 
Q 969 -75 630 194 
Q 291 463 197 991 
z
" transform="scale(0.015625)"/>
       <path id="ArialMT-68" d="M 422 0 
L 422 4581 
L 984 4581 
L 984 2938 
Q 1378 3394 1978 3394 
Q 2347 3394 2619 3248 
Q 2891 3103 3008 2847 
Q 3125 2591 3125 2103 
L 3125 0 
L 2563 0 
L 2563 2103 
Q 2563 2525 2380 2717 
Q 2197 2909 1863 2909 
Q 1613 2909 1392 2779 
Q 1172 2650 1078 2428 
Q 984 2206 984 1816 
L 984 0 
L 422 0 
z
" transform="scale(0.015625)"/>
      </defs>
      <use xlink:href="#ArialMT-5a"/>
      <use xlink:href="#ArialMT-65" x="61.083984"/>
      <use xlink:href="#ArialMT-72" x="116.699219"/>
      <use xlink:href="#ArialMT-6f" x="150"/>
      <use xlink:href="#ArialMT-2d" x="205.615234"/>
      <use xlink:href="#ArialMT-73" x="238.916016"/>
      <use xlink:href="#ArialMT-68" x="288.916016"/>
      <use xlink:href="#ArialMT-6f" x="344.53125"/>
      <use xlink:href="#ArialMT-74" x="400.146484"/>
     </g>
    </g>
    <g id="patch_8">
     <path d="M 371.575125 84.547812 
L 393.575125 84.547812 
L 393.575125 76.847812 
L 371.575125 76.847812 
z
" style="fill: #6baed6; stroke: #000000; stroke-linejoin: miter"/>
    </g>
    <g id="text_17">
     <!-- Embedding+MLP -->
     <g transform="translate(402.375125 84.547812) scale(0.11 -0.11)">
      <defs>
       <path id="ArialMT-45" d="M 506 0 
L 506 4581 
L 3819 4581 
L 3819 4041 
L 1113 4041 
L 1113 2638 
L 3647 2638 
L 3647 2100 
L 1113 2100 
L 1113 541 
L 3925 541 
L 3925 0 
L 506 0 
z
" transform="scale(0.015625)"/>
       <path id="ArialMT-6d" d="M 422 0 
L 422 3319 
L 925 3319 
L 925 2853 
Q 1081 3097 1340 3245 
Q 1600 3394 1931 3394 
Q 2300 3394 2536 3241 
Q 2772 3088 2869 2813 
Q 3263 3394 3894 3394 
Q 4388 3394 4653 3120 
Q 4919 2847 4919 2278 
L 4919 0 
L 4359 0 
L 4359 2091 
Q 4359 2428 4304 2576 
Q 4250 2725 4106 2815 
Q 3963 2906 3769 2906 
Q 3419 2906 3187 2673 
Q 2956 2441 2956 1928 
L 2956 0 
L 2394 0 
L 2394 2156 
Q 2394 2531 2256 2718 
Q 2119 2906 1806 2906 
Q 1569 2906 1367 2781 
Q 1166 2656 1075 2415 
Q 984 2175 984 1722 
L 984 0 
L 422 0 
z
" transform="scale(0.015625)"/>
       <path id="ArialMT-62" d="M 941 0 
L 419 0 
L 419 4581 
L 981 4581 
L 981 2947 
Q 1338 3394 1891 3394 
Q 2197 3394 2470 3270 
Q 2744 3147 2920 2923 
Q 3097 2700 3197 2384 
Q 3297 2069 3297 1709 
Q 3297 856 2875 390 
Q 2453 -75 1863 -75 
Q 1275 -75 941 416 
L 941 0 
z
M 934 1684 
Q 934 1088 1097 822 
Q 1363 388 1816 388 
Q 2184 388 2453 708 
Q 2722 1028 2722 1663 
Q 2722 2313 2464 2622 
Q 2206 2931 1841 2931 
Q 1472 2931 1203 2611 
Q 934 2291 934 1684 
z
" transform="scale(0.015625)"/>
       <path id="ArialMT-64" d="M 2575 0 
L 2575 419 
Q 2259 -75 1647 -75 
Q 1250 -75 917 144 
Q 584 363 401 755 
Q 219 1147 219 1656 
Q 219 2153 384 2558 
Q 550 2963 881 3178 
Q 1213 3394 1622 3394 
Q 1922 3394 2156 3267 
Q 2391 3141 2538 2938 
L 2538 4581 
L 3097 4581 
L 3097 0 
L 2575 0 
z
M 797 1656 
Q 797 1019 1065 703 
Q 1334 388 1700 388 
Q 2069 388 2326 689 
Q 2584 991 2584 1609 
Q 2584 2291 2321 2609 
Q 2059 2928 1675 2928 
Q 1300 2928 1048 2622 
Q 797 2316 797 1656 
z
" transform="scale(0.015625)"/>
       <path id="ArialMT-69" d="M 425 3934 
L 425 4581 
L 988 4581 
L 988 3934 
L 425 3934 
z
M 425 0 
L 425 3319 
L 988 3319 
L 988 0 
L 425 0 
z
" transform="scale(0.015625)"/>
       <path id="ArialMT-6e" d="M 422 0 
L 422 3319 
L 928 3319 
L 928 2847 
Q 1294 3394 1984 3394 
Q 2284 3394 2536 3286 
Q 2788 3178 2913 3003 
Q 3038 2828 3088 2588 
Q 3119 2431 3119 2041 
L 3119 0 
L 2556 0 
L 2556 2019 
Q 2556 2363 2490 2533 
Q 2425 2703 2258 2804 
Q 2091 2906 1866 2906 
Q 1506 2906 1245 2678 
Q 984 2450 984 1813 
L 984 0 
L 422 0 
z
" transform="scale(0.015625)"/>
       <path id="ArialMT-2b" d="M 1603 741 
L 1603 1997 
L 356 1997 
L 356 2522 
L 1603 2522 
L 1603 3769 
L 2134 3769 
L 2134 2522 
L 3381 2522 
L 3381 1997 
L 2134 1997 
L 2134 741 
L 1603 741 
z
" transform="scale(0.015625)"/>
       <path id="ArialMT-4d" d="M 475 0 
L 475 4581 
L 1388 4581 
L 2472 1338 
Q 2622 884 2691 659 
Q 2769 909 2934 1394 
L 4031 4581 
L 4847 4581 
L 4847 0 
L 4263 0 
L 4263 3834 
L 2931 0 
L 2384 0 
L 1059 3900 
L 1059 0 
L 475 0 
z
" transform="scale(0.015625)"/>
       <path id="ArialMT-4c" d="M 469 0 
L 469 4581 
L 1075 4581 
L 1075 541 
L 3331 541 
L 3331 0 
L 469 0 
z
" transform="scale(0.015625)"/>
       <path id="ArialMT-50" d="M 494 0 
L 494 4581 
L 2222 4581 
Q 2678 4581 2919 4538 
Q 3256 4481 3484 4323 
Q 3713 4166 3852 3881 
Q 3991 3597 3991 3256 
Q 3991 2672 3619 2267 
Q 3247 1863 2275 1863 
L 1100 1863 
L 1100 0 
L 494 0 
z
M 1100 2403 
L 2284 2403 
Q 2872 2403 3119 2622 
Q 3366 2841 3366 3238 
Q 3366 3525 3220 3729 
Q 3075 3934 2838 4000 
Q 2684 4041 2272 4041 
L 1100 4041 
L 1100 2403 
z
" transform="scale(0.015625)"/>
      </defs>
      <use xlink:href="#ArialMT-45"/>
      <use xlink:href="#ArialMT-6d" x="66.699219"/>
      <use xlink:href="#ArialMT-62" x="150"/>
      <use xlink:href="#ArialMT-65" x="205.615234"/>
      <use xlink:href="#ArialMT-64" x="261.230469"/>
      <use xlink:href="#ArialMT-64" x="316.845703"/>
      <use xlink:href="#ArialMT-69" x="372.460938"/>
      <use xlink:href="#ArialMT-6e" x="394.677734"/>
      <use xlink:href="#ArialMT-67" x="450.292969"/>
      <use xlink:href="#ArialMT-2b" x="505.908203"/>
      <use xlink:href="#ArialMT-4d" x="564.306641"/>
      <use xlink:href="#ArialMT-4c" x="647.607422"/>
      <use xlink:href="#ArialMT-50" x="703.222656"/>
     </g>
    </g>
   </g>
   <g id="Poly3DCollection_4">
    <path d="M 78.940167 328.521648 
L 298.442474 386.34628 
L 414.359088 290.063156 
L 208.113335 242.092348 
z
" clip-path="url(#p173b8c3220)" style="fill: #c35252; fill-opacity: 0.2"/>
   </g>
   <g id="Poly3DCollection_5">
    <path d="M 125.123353 326.581235 
L 134.829114 319.892022 
L 143.793806 322.199005 
L 134.126137 328.919659 
z
" clip-path="url(#p173b8c3220)" style="fill: #395d72; stroke: #000000"/>
    <path d="M 134.829114 319.892022 
L 131.387366 175.011772 
L 140.612413 177.038799 
L 143.793806 322.199005 
z
" clip-path="url(#p173b8c3220)" style="fill: #2d4859; stroke: #000000"/>
    <path d="M 175.681295 339.713386 
L 185.169448 332.846658 
L 194.371502 335.214725 
L 184.924102 342.114156 
z
" clip-path="url(#p173b8c3220)" style="fill: #395d72; stroke: #000000"/>
    <path d="M 125.123353 326.581235 
L 121.36537 180.890017 
L 131.387366 175.011772 
L 134.829114 319.892022 
z
" clip-path="url(#p173b8c3220)" style="fill: #5f9abd; stroke: #000000"/>
    <path d="M 134.126137 328.919659 
L 143.793806 322.199005 
L 140.612413 177.038799 
L 130.630716 182.945504 
z
" clip-path="url(#p173b8c3220)" style="fill: #2d4859; stroke: #000000"/>
    <path d="M 125.123353 326.581235 
L 134.126137 328.919659 
L 130.630716 182.945504 
L 121.36537 180.890017 
z
" clip-path="url(#p173b8c3220)" style="fill: #5f9abd; stroke: #000000"/>
    <path d="M 185.169448 332.846658 
L 183.442357 203.999032 
L 192.886117 206.116824 
L 194.371502 335.214725 
z
" clip-path="url(#p173b8c3220)" style="fill: #2d4859; stroke: #000000"/>
    <path d="M 175.681295 339.713386 
L 173.687291 210.140769 
L 183.442357 203.999032 
L 185.169448 332.846658 
z
" clip-path="url(#p173b8c3220)" style="fill: #5f9abd; stroke: #000000"/>
    <path d="M 227.594627 353.197593 
L 236.850003 346.146189 
L 246.298974 348.577798 
L 237.087186 355.663234 
z
" clip-path="url(#p173b8c3220)" style="fill: #395d72; stroke: #000000"/>
    <path d="M 184.924102 342.114156 
L 194.371502 335.214725 
L 192.886117 206.116824 
L 183.173957 212.288596 
z
" clip-path="url(#p173b8c3220)" style="fill: #2d4859; stroke: #000000"/>
    <path d="M 121.36537 180.890017 
L 130.630716 182.945504 
L 140.612413 177.038799 
L 131.387366 175.011772 
z
" clip-path="url(#p173b8c3220)" style="fill: #5285a4; stroke: #000000"/>
    <path d="M 175.681295 339.713386 
L 184.924102 342.114156 
L 183.173957 212.288596 
L 173.687291 210.140769 
z
" clip-path="url(#p173b8c3220)" style="fill: #5f9abd; stroke: #000000"/>
    <path d="M 236.850003 346.146189 
L 236.538369 231.531759 
L 246.211814 233.739483 
L 246.298974 348.577798 
z
" clip-path="url(#p173b8c3220)" style="fill: #2d4859; stroke: #000000"/>
    <path d="M 227.594627 353.197593 
L 227.059118 237.934617 
L 236.538369 231.531759 
L 236.850003 346.146189 
z
" clip-path="url(#p173b8c3220)" style="fill: #5f9abd; stroke: #000000"/>
    <path d="M 237.087186 355.663234 
L 246.298974 348.577798 
L 246.211814 233.739483 
L 236.778246 240.173983 
z
" clip-path="url(#p173b8c3220)" style="fill: #2d4859; stroke: #000000"/>
    <path d="M 173.687291 210.140769 
L 183.173957 212.288596 
L 192.886117 206.116824 
L 183.442357 203.999032 
z
" clip-path="url(#p173b8c3220)" style="fill: #5285a4; stroke: #000000"/>
    <path d="M 280.918594 367.048205 
L 289.925022 359.804573 
L 299.630984 362.302315 
L 290.671166 369.581383 
z
" clip-path="url(#p173b8c3220)" style="fill: #395d72; stroke: #000000"/>
    <path d="M 227.594627 353.197593 
L 237.087186 355.663234 
L 236.778246 240.173983 
L 227.059118 237.934617 
z
" clip-path="url(#p173b8c3220)" style="fill: #5f9abd; stroke: #000000"/>
    <path d="M 227.059118 237.934617 
L 236.778246 240.173983 
L 246.211814 233.739483 
L 236.538369 231.531759 
z
" clip-path="url(#p173b8c3220)" style="fill: #5285a4; stroke: #000000"/>
    <path d="M 289.925022 359.804573 
L 291.110494 217.252196 
L 301.108022 219.466869 
L 299.630984 362.302315 
z
" clip-path="url(#p173b8c3220)" style="fill: #2d4859; stroke: #000000"/>
    <path d="M 280.918594 367.048205 
L 281.843618 223.675786 
L 291.110494 217.252196 
L 289.925022 359.804573 
z
" clip-path="url(#p173b8c3220)" style="fill: #5f9abd; stroke: #000000"/>
    <path d="M 290.671166 369.581383 
L 299.630984 362.302315 
L 301.108022 219.466869 
L 291.890619 225.922821 
z
" clip-path="url(#p173b8c3220)" style="fill: #2d4859; stroke: #000000"/>
    <path d="M 280.918594 367.048205 
L 290.671166 369.581383 
L 291.890619 225.922821 
L 281.843618 223.675786 
z
" clip-path="url(#p173b8c3220)" style="fill: #5f9abd; stroke: #000000"/>
    <path d="M 281.843618 223.675786 
L 291.890619 225.922821 
L 301.108022 219.466869 
L 291.110494 217.252196 
z
" clip-path="url(#p173b8c3220)" style="fill: #5285a4; stroke: #000000"/>
   </g>
  </g>
 </g>
 <defs>
  <clipPath id="p173b8c3220">
   <rect x="50.671094" y="35.391562" width="388.08" height="388.08"/>
  </clipPath>
 </defs>
</svg>
